<?xml version="1.0"?>
<svg xmlns="http://www.w3.org/2000/svg" viewBox="0 0 50 50">
    <path d="M44,2H6C4.346,2,3,3.346,3,5v39c0,0.553,0.447,1,1,1h16.586l3.707,3.707C24.488,48.902,24.744,49,25,49 s0.512-0.098,0.707-0.293L29.414,45H46c0.553,0,1-0.447,1-1V5C47,3.346,45.654,2,44,2z M14,35c0.325-5.503,6.807-4.702,7.85-7.556 c0.087-0.976,0.054-1.658,0.054-2.55c-0.436-0.232-1.246-1.712-1.377-2.961c-0.342-0.028-0.881-0.367-1.039-1.707 c-0.085-0.719,0.254-1.124,0.459-1.251C18.329,15.31,20.365,11,25.95,11l0.596,1.2c3.886,0,4.054,5.44,3.024,6.776 c0.277,0.079,0.544,0.532,0.459,1.251c-0.158,1.339-0.697,1.679-1.039,1.707c-0.132,1.249-0.911,2.729-1.346,2.961 c0,0.892-0.033,1.574,0.054,2.55C28.742,30.298,35.675,29.497,36,35H14z"/>
</svg>
